<?xml version="1.0" encoding="UTF-8"?>
<svg id="Layer_1" xmlns="http://www.w3.org/2000/svg" version="1.1" viewBox="0 0 800 800">
  <!-- Generator: Adobe Illustrator 30.2.1, SVG Export Plug-In . SVG Version: 2.1.1 Build 1)  -->
  <defs>
    <style>
      .st0 {
        fill: #fff;
      }

      .st1 {
        fill: #ed1c24;
      }
    </style>
  </defs>
  <circle cx="400" cy="400" r="391.52"/>
  <g>
    <path class="st0" d="M383.88,589.88c0,23.49-13.58,29.1-30.18,12.5l-114.22-114.22h-78.49c-23.52-.09-42.56-19.15-42.62-42.66v-90.84c.03-23.53,19.07-42.63,42.62-42.72h78.45l114.22-114.33c16.59-16.59,30.16-10.94,30.16,12.5l.06,379.78Z"/>
    <g>
      <rect class="st0" x="413.75" y="381.24" width="267.87" height="37.52" rx="17.35" ry="17.35"/>
      <path class="st1" d="M642.42,494.21c-7.07,7.21-18.64,7.33-25.84.26l-68.76-68.76-68.76,68.76-.26.26c-7.21,7.07-18.78,6.95-25.84-.26-7.07-7.21-6.95-18.77.25-25.84l68.76-68.76-68.76-68.76c-6.96-7.1-6.96-18.47,0-25.59,7.07-7.2,18.64-7.32,25.85-.25l68.76,68.75,68.76-68.75c7.1-6.97,18.47-6.97,25.58,0,7.21,7.06,7.33,18.63.26,25.84l-68.76,68.76,68.76,68.76c6.97,7.1,6.97,18.47,0,25.58Z"/>
      <rect class="st0" x="413.75" y="381.24" width="267.87" height="37.52" rx="17.35" ry="17.35" transform="translate(147.68 947.68) rotate(-90)"/>
    </g>
  </g>
</svg>